<svg width="24" height="24" viewBox="0 0 24 24" fill="none" xmlns="http://www.w3.org/2000/svg">
<path d="M17 20.5H7C6.17157 20.5 5.5 19.8284 5.5 19V5C5.5 4.17157 6.17157 3.5 7 3.5H14.2511C14.6133 3.5 14.9632 3.63102 15.2363 3.86888L15.5609 3.4962L15.2363 3.86888L17.9852 6.26305C18.3122 6.54792 18.5 6.96043 18.5 7.39417V19C18.5 19.8284 17.8284 20.5 17 20.5Z" stroke="#00C193" stroke-linecap="square" stroke-linejoin="round"/>
<path fill-rule="evenodd" clip-rule="evenodd" d="M13.5 5C13.2239 5 13 5.22386 13 5.5V8.5C13 8.77614 13.2239 9 13.5 9H16.5C16.7761 9 17 8.77614 17 8.5C17 8.22386 16.7761 8 16.5 8H14V5.5C14 5.22386 13.7761 5 13.5 5Z" fill="#00C193"/>
<rect x="8" y="14" width="8" height="1" rx="0.5" fill="#00C193"/>
<rect x="8" y="17" width="8" height="1" rx="0.5" fill="#00C193"/>
</svg>
