<svg width="24" height="24" viewBox="0 0 24 24" fill="none" xmlns="http://www.w3.org/2000/svg">
<path d="M6 11V18C6 19.1046 6.89543 20 8 20H16C17.1046 20 18 19.1046 18 18V11" stroke="#00C193" stroke-linecap="round"/>
<path d="M6 8L4.5547 8.96353C3.89014 9.40657 3 8.93018 3 8.13148V6.53518C3 6.20083 3.1671 5.8886 3.4453 5.70313L5.74808 4.16795C5.91234 4.05844 6.10535 4 6.30278 4H9H12H15H17.6972C17.8946 4 18.0877 4.05844 18.2519 4.16795L20.5547 5.70313C20.8329 5.8886 21 6.20083 21 6.53518V8.13148C21 8.93018 20.1099 9.40657 19.4453 8.96353L18 8" stroke="#00C193" stroke-linecap="round"/>
<path d="M15 4C15 5.65685 13.6569 7 12 7C10.3431 7 9 5.65685 9 4" stroke="#00C193"/>
</svg>
