<svg width="20" height="20" viewBox="0 0 20 20" fill="none" xmlns="http://www.w3.org/2000/svg">
<path d="M1.15757 10.6031C0.939197 10.3604 0.764508 10.154 0.63815 10C0.764508 9.84604 0.939197 9.63964 1.15757 9.3969C1.65168 8.84765 2.36638 8.11573 3.24801 7.38495C5.02546 5.91164 7.41264 4.5 10 4.5C12.5874 4.5 14.9745 5.91164 16.752 7.38495C17.6336 8.11573 18.3483 8.84765 18.8424 9.3969C19.0608 9.63964 19.2355 9.84604 19.3618 10C19.2355 10.154 19.0608 10.3604 18.8424 10.6031C18.3483 11.1523 17.6336 11.8843 16.752 12.6151C14.9745 14.0884 12.5874 15.5 10 15.5C7.41264 15.5 5.02546 14.0884 3.24801 12.6151C2.36638 11.8843 1.65168 11.1523 1.15757 10.6031Z" stroke="#00C193" stroke-linecap="round"/>
<circle cx="10" cy="10" r="3" fill="#00C193"/>
</svg>
