<svg width="24" height="24" viewBox="0 0 24 24" fill="none" xmlns="http://www.w3.org/2000/svg">
<path d="M5 11L5.8199 19.199C5.92214 20.2214 6.78247 21 7.80998 21H16.19C17.2175 21 18.0779 20.2214 18.1801 19.199L19 11" stroke="#00C193" stroke-linecap="round"/>
<path d="M10 19V15C10 14.4477 10.4477 14 11 14H13C13.5523 14 14 14.4477 14 15V19" stroke="#00C193" stroke-linecap="round"/>
<path d="M20.1948 9H3.80516C3.29805 9 3.11307 8.33216 3.54791 8.07125L10.971 3.61739C11.6044 3.23738 12.3956 3.23738 13.029 3.6174L20.4521 8.07125C20.8869 8.33216 20.702 9 20.1948 9Z" stroke="#00C193"/>
</svg>
