<svg width="16" height="16" viewBox="0 0 16 16" fill="none" xmlns="http://www.w3.org/2000/svg">
<path d="M4.50675 3.22667L3.30675 2.03334L2.36675 2.97334L3.56008 4.16667L4.50675 3.22667ZM2.66675 7H0.666748V8.33334H2.66675V7ZM8.66675 0.366669H7.33341V2.33334H8.66675V0.366669ZM13.6334 2.97334L12.6934 2.03334L11.5001 3.22667L12.4401 4.16667L13.6334 2.97334ZM11.4934 12.1067L12.6867 13.3067L13.6267 12.3667L12.4267 11.1733L11.4934 12.1067ZM13.3334 7V8.33334H15.3334V7H13.3334ZM8.00008 3.66667C5.79341 3.66667 4.00008 5.46 4.00008 7.66667C4.00008 9.87334 5.79341 11.6667 8.00008 11.6667C10.2067 11.6667 12.0001 9.87334 12.0001 7.66667C12.0001 5.46 10.2067 3.66667 8.00008 3.66667ZM7.33341 14.9667H8.66675V13H7.33341V14.9667ZM2.36675 12.36L3.30675 13.3L4.50008 12.1L3.56008 11.16L2.36675 12.36Z" fill="#F2C94C"/>
</svg>
